{
    "asset" : {
        "generator" : "Khronos glTF Blender I/O v3.3.32",
        "version" : "2.0"
    },
    "scene" : 0,
    "scenes" : [
        {
            "name" : "Scene",
            "nodes" : [
                10
            ]
        }
    ],
    "nodes" : [
        {
            "mesh" : 0,
            "name" : "Object_10"
        },
        {
            "mesh" : 1,
            "name" : "Object_4"
        },
        {
            "mesh" : 2,
            "name" : "Object_5"
        },
        {
            "mesh" : 3,
            "name" : "Object_6"
        },
        {
            "mesh" : 4,
            "name" : "Object_7"
        },
        {
            "mesh" : 5,
            "name" : "Object_8"
        },
        {
            "mesh" : 6,
            "name" : "Object_9"
        },
        {
            "children" : [
                0,
                1,
                2,
                3,
                4,
                5,
                6
            ],
            "name" : "x-wing_0",
            "rotation" : [
                0,
                0,
                -0.7071066498756409,
                0.70710688829422
            ],
            "translation" : [
                -2.014132499694824,
                0,
                0
            ]
        },
        {
            "children" : [
                7
            ],
            "name" : "GLTF_SceneRootNode",
            "rotation" : [
                0.7071068286895752,
                0,
                0,
                0.7071067094802856
            ]
        },
        {
            "children" : [
                8
            ],
            "name" : "root"
        },
        {
            "children" : [
                9
            ],
            "name" : "Sketchfab_model",
            "rotation" : [
                -0.7071068286895752,
                0,
                0,
                0.7071067094802856
            ],
            "scale" : [
                0.7246376872062683,
                0.7246377468109131,
                0.7246377468109131
            ]
        }
    ],
    "materials" : [
        {
            "doubleSided" : true,
            "name" : "Material.004",
            "pbrMetallicRoughness" : {
                "baseColorFactor" : [
                    0.15486900508403778,
                    0.8140419721603394,
                    0.07369569689035416,
                    1
                ],
                "roughnessFactor" : 0.19852900505065918
            }
        },
        {
            "doubleSided" : true,
            "name" : "Basic",
            "pbrMetallicRoughness" : {
                "baseColorFactor" : [
                    0.033102698624134064,
                    0.033102698624134064,
                    0.033102698624134064,
                    1
                ],
                "metallicFactor" : 0,
                "roughnessFactor" : 0.3308820128440857
            }
        },
        {
            "doubleSided" : true,
            "name" : "Material.003",
            "pbrMetallicRoughness" : {
                "baseColorFactor" : [
                    0.4577230215072632,
                    0.4577230215072632,
                    0.4577230215072632,
                    1
                ],
                "metallicFactor" : 0.7191705107688904
            }
        },
        {
            "doubleSided" : true,
            "name" : "Darkness",
            "pbrMetallicRoughness" : {
                "baseColorFactor" : [
                    0,
                    0,
                    0,
                    1
                ],
                "metallicFactor" : 0,
                "roughnessFactor" : 0
            }
        },
        {
            "doubleSided" : true,
            "emissiveFactor" : [
                1,
                0.27137407660484314,
                1
            ],
            "name" : "Emission",
            "pbrMetallicRoughness" : {}
        },
        {
            "doubleSided" : true,
            "name" : "Material.001",
            "pbrMetallicRoughness" : {
                "baseColorFactor" : [
                    0.0036420999094843864,
                    0.0036420999094843864,
                    0.0036420999094843864,
                    1
                ],
                "metallicFactor" : 0,
                "roughnessFactor" : 0.5
            }
        },
        {
            "doubleSided" : true,
            "name" : "Material.002",
            "pbrMetallicRoughness" : {
                "baseColorFactor" : [
                    0.1282390058040619,
                    0.1282390058040619,
                    0.1282390058040619,
                    1
                ],
                "metallicFactor" : 0,
                "roughnessFactor" : 0.5
            }
        }
    ],
    "meshes" : [
        {
            "name" : "Object_6",
            "primitives" : [
                {
                    "attributes" : {
                        "POSITION" : 0,
                        "NORMAL" : 1,
                        "TEXCOORD_0" : 2
                    },
                    "indices" : 3,
                    "material" : 0
                }
            ]
        },
        {
            "name" : "Object_0",
            "primitives" : [
                {
                    "attributes" : {
                        "POSITION" : 4,
                        "NORMAL" : 5,
                        "TEXCOORD_0" : 6
                    },
                    "indices" : 7,
                    "material" : 1
                }
            ]
        },
        {
            "name" : "Object_1",
            "primitives" : [
                {
                    "attributes" : {
                        "POSITION" : 8,
                        "NORMAL" : 9,
                        "TEXCOORD_0" : 10
                    },
                    "indices" : 11,
                    "material" : 2
                }
            ]
        },
        {
            "name" : "Object_2",
            "primitives" : [
                {
                    "attributes" : {
                        "POSITION" : 12,
                        "NORMAL" : 13,
                        "TEXCOORD_0" : 14
                    },
                    "indices" : 15,
                    "material" : 3
                }
            ]
        },
        {
            "name" : "Object_3",
            "primitives" : [
                {
                    "attributes" : {
                        "POSITION" : 16,
                        "NORMAL" : 17,
                        "TEXCOORD_0" : 18
                    },
                    "indices" : 19,
                    "material" : 4
                }
            ]
        },
        {
            "name" : "Object_4",
            "primitives" : [
                {
                    "attributes" : {
                        "POSITION" : 20,
                        "NORMAL" : 21,
                        "TEXCOORD_0" : 22
                    },
                    "indices" : 23,
                    "material" : 5
                }
            ]
        },
        {
            "name" : "Object_5",
            "primitives" : [
                {
                    "attributes" : {
                        "POSITION" : 24,
                        "NORMAL" : 25,
                        "TEXCOORD_0" : 26
                    },
                    "indices" : 27,
                    "material" : 6
                }
            ]
        }
    ],
    "accessors" : [
        {
            "bufferView" : 0,
            "componentType" : 5126,
            "count" : 4817,
            "max" : [
                1.7209463119506836,
                11.22974967956543,
                5.457681179046631
            ],
            "min" : [
                -1.6730625629425049,
                -0.34691664576530457,
                -5.457681179046631
            ],
            "type" : "VEC3"
        },
        {
            "bufferView" : 1,
            "componentType" : 5126,
            "count" : 4817,
            "type" : "VEC3"
        },
        {
            "bufferView" : 2,
            "componentType" : 5126,
            "count" : 4817,
            "type" : "VEC2"
        },
        {
            "bufferView" : 3,
            "componentType" : 5123,
            "count" : 5103,
            "type" : "SCALAR"
        },
        {
            "bufferView" : 4,
            "componentType" : 5126,
            "count" : 3385,
            "max" : [
                1.7209464311599731,
                10.128823280334473,
                5.457681179046631
            ],
            "min" : [
                -1.6730624437332153,
                -0.38212481141090393,
                -5.457681179046631
            ],
            "type" : "VEC3"
        },
        {
            "bufferView" : 5,
            "componentType" : 5126,
            "count" : 3385,
            "type" : "VEC3"
        },
        {
            "bufferView" : 6,
            "componentType" : 5126,
            "count" : 3385,
            "type" : "VEC2"
        },
        {
            "bufferView" : 7,
            "componentType" : 5123,
            "count" : 3651,
            "type" : "SCALAR"
        },
        {
            "bufferView" : 8,
            "componentType" : 5126,
            "count" : 24,
            "max" : [
                -0.3384281396865845,
                5.005650043487549,
                0.6775857210159302
            ],
            "min" : [
                -0.8797623515129089,
                3.094391345977783,
                -0.6775857210159302
            ],
            "type" : "VEC3"
        },
        {
            "bufferView" : 9,
            "componentType" : 5126,
            "count" : 24,
            "type" : "VEC3"
        },
        {
            "bufferView" : 10,
            "componentType" : 5126,
            "count" : 24,
            "type" : "VEC2"
        },
        {
            "bufferView" : 11,
            "componentType" : 5123,
            "count" : 30,
            "type" : "SCALAR"
        },
        {
            "bufferView" : 12,
            "componentType" : 5126,
            "count" : 54,
            "max" : [
                0.9552323818206787,
                -0.2068147361278534,
                1.103007435798645
            ],
            "min" : [
                -0.9552327394485474,
                -0.20681491494178772,
                -1.1030076742172241
            ],
            "type" : "VEC3"
        },
        {
            "bufferView" : 13,
            "componentType" : 5126,
            "count" : 54,
            "type" : "VEC3"
        },
        {
            "bufferView" : 14,
            "componentType" : 5126,
            "count" : 54,
            "type" : "VEC2"
        },
        {
            "bufferView" : 15,
            "componentType" : 5123,
            "count" : 54,
            "type" : "SCALAR"
        },
        {
            "bufferView" : 16,
            "componentType" : 5126,
            "count" : 157,
            "max" : [
                1.5850532054901123,
                4.33607292175293,
                5.2753586769104
            ],
            "min" : [
                -1.5880281925201416,
                -0.47947800159454346,
                -5.2753586769104
            ],
            "type" : "VEC3"
        },
        {
            "bufferView" : 17,
            "componentType" : 5126,
            "count" : 157,
            "type" : "VEC3"
        },
        {
            "bufferView" : 18,
            "componentType" : 5126,
            "count" : 157,
            "type" : "VEC2"
        },
        {
            "bufferView" : 19,
            "componentType" : 5123,
            "count" : 174,
            "type" : "SCALAR"
        },
        {
            "bufferView" : 20,
            "componentType" : 5126,
            "count" : 1160,
            "max" : [
                1.7209464311599731,
                5.609219551086426,
                5.417431354522705
            ],
            "min" : [
                -1.6730625629425049,
                -0.3112514913082123,
                -5.4147443771362305
            ],
            "type" : "VEC3"
        },
        {
            "bufferView" : 21,
            "componentType" : 5126,
            "count" : 1160,
            "type" : "VEC3"
        },
        {
            "bufferView" : 22,
            "componentType" : 5126,
            "count" : 1160,
            "type" : "VEC2"
        },
        {
            "bufferView" : 23,
            "componentType" : 5123,
            "count" : 1323,
            "type" : "SCALAR"
        },
        {
            "bufferView" : 24,
            "componentType" : 5126,
            "count" : 1146,
            "max" : [
                1.6410319805145264,
                2.8167457580566406,
                1.7866077423095703
            ],
            "min" : [
                -1.6730625629425049,
                -1.2112878561019897,
                -1.764162302017212
            ],
            "type" : "VEC3"
        },
        {
            "bufferView" : 25,
            "componentType" : 5126,
            "count" : 1146,
            "type" : "VEC3"
        },
        {
            "bufferView" : 26,
            "componentType" : 5126,
            "count" : 1146,
            "type" : "VEC2"
        },
        {
            "bufferView" : 27,
            "componentType" : 5123,
            "count" : 1176,
            "type" : "SCALAR"
        }
    ],
    "bufferViews" : [
        {
            "buffer" : 0,
            "byteLength" : 57804,
            "byteOffset" : 0,
            "target" : 34962
        },
        {
            "buffer" : 0,
            "byteLength" : 57804,
            "byteOffset" : 57804,
            "target" : 34962
        },
        {
            "buffer" : 0,
            "byteLength" : 38536,
            "byteOffset" : 115608,
            "target" : 34962
        },
        {
            "buffer" : 0,
            "byteLength" : 10206,
            "byteOffset" : 154144,
            "target" : 34963
        },
        {
            "buffer" : 0,
            "byteLength" : 40620,
            "byteOffset" : 164352,
            "target" : 34962
        },
        {
            "buffer" : 0,
            "byteLength" : 40620,
            "byteOffset" : 204972,
            "target" : 34962
        },
        {
            "buffer" : 0,
            "byteLength" : 27080,
            "byteOffset" : 245592,
            "target" : 34962
        },
        {
            "buffer" : 0,
            "byteLength" : 7302,
            "byteOffset" : 272672,
            "target" : 34963
        },
        {
            "buffer" : 0,
            "byteLength" : 288,
            "byteOffset" : 279976,
            "target" : 34962
        },
        {
            "buffer" : 0,
            "byteLength" : 288,
            "byteOffset" : 280264,
            "target" : 34962
        },
        {
            "buffer" : 0,
            "byteLength" : 192,
            "byteOffset" : 280552,
            "target" : 34962
        },
        {
            "buffer" : 0,
            "byteLength" : 60,
            "byteOffset" : 280744,
            "target" : 34963
        },
        {
            "buffer" : 0,
            "byteLength" : 648,
            "byteOffset" : 280804,
            "target" : 34962
        },
        {
            "buffer" : 0,
            "byteLength" : 648,
            "byteOffset" : 281452,
            "target" : 34962
        },
        {
            "buffer" : 0,
            "byteLength" : 432,
            "byteOffset" : 282100,
            "target" : 34962
        },
        {
            "buffer" : 0,
            "byteLength" : 108,
            "byteOffset" : 282532,
            "target" : 34963
        },
        {
            "buffer" : 0,
            "byteLength" : 1884,
            "byteOffset" : 282640,
            "target" : 34962
        },
        {
            "buffer" : 0,
            "byteLength" : 1884,
            "byteOffset" : 284524,
            "target" : 34962
        },
        {
            "buffer" : 0,
            "byteLength" : 1256,
            "byteOffset" : 286408,
            "target" : 34962
        },
        {
            "buffer" : 0,
            "byteLength" : 348,
            "byteOffset" : 287664,
            "target" : 34963
        },
        {
            "buffer" : 0,
            "byteLength" : 13920,
            "byteOffset" : 288012,
            "target" : 34962
        },
        {
            "buffer" : 0,
            "byteLength" : 13920,
            "byteOffset" : 301932,
            "target" : 34962
        },
        {
            "buffer" : 0,
            "byteLength" : 9280,
            "byteOffset" : 315852,
            "target" : 34962
        },
        {
            "buffer" : 0,
            "byteLength" : 2646,
            "byteOffset" : 325132,
            "target" : 34963
        },
        {
            "buffer" : 0,
            "byteLength" : 13752,
            "byteOffset" : 327780,
            "target" : 34962
        },
        {
            "buffer" : 0,
            "byteLength" : 13752,
            "byteOffset" : 341532,
            "target" : 34962
        },
        {
            "buffer" : 0,
            "byteLength" : 9168,
            "byteOffset" : 355284,
            "target" : 34962
        },
        {
            "buffer" : 0,
            "byteLength" : 2352,
            "byteOffset" : 364452,
            "target" : 34963
        }
    ],
    "buffers" : [
        {
            "byteLength" : 366804,
            "uri" : "data:application/octet-stream;base64,"
        }
    ]
}
